<svg xmlns="http://www.w3.org/2000/svg" viewBox="0 0 64 64">
  <circle cx="32" cy="32" r="32" fill="#2a0e0e"/>
  <path d="M33.5 8 C33.5 8 34 10 34 12.5 C34 15 33 17 31.5 19.5 C29 23.5 26 28 26 34 C26 38 27.5 41 30 43.5 C27 44.5 24.5 47 24.5 50 C24.5 53.5 27.5 56 31 56 C34.5 56 37 53.5 37 50.5 C37 48 35.5 46 33 45 C36 43 38 39.5 38 35.5 C38 31 35.5 27.5 33 25 C35 22 37 18.5 37 15 C37 11 35.5 8 33.5 8 Z M31.5 24 C33 26 35 28.5 35 33 C35 37 33 40 31 42 C29 40 27.5 37 27.5 33.5 C27.5 29 30 25.5 31.5 24 Z M31 47 C33 47.5 34.5 49 34.5 50.5 C34.5 52 33 53.5 31 53.5 C29 53.5 27 52 27 50 C27 48.5 28.5 47 31 47 Z" fill="#facc15"/>
  <line x1="33.5" y1="8" x2="33.5" y2="56" stroke="#facc15" stroke-width="1.5" stroke-linecap="round"/>
</svg>
